<svg width="108" height="103" viewBox="0 0 108 103" fill="none" xmlns="http://www.w3.org/2000/svg">
<path d="M37.3091 103L27.9818 87.3048L10.3091 83.381L12.0273 65.2333L0 51.5L12.0273 37.7667L10.3091 19.619L27.9818 15.6952L37.3091 0L54 7.1119L70.6909 0L80.0182 15.6952L97.6909 19.619L95.9727 37.7667L108 51.5L95.9727 65.2333L97.6909 83.381L80.0182 87.3048L70.6909 103L54 95.8881L37.3091 103ZM41.4818 90.4929L54 85.0976L66.7636 90.4929L73.6364 78.7214L87.1364 75.5333L85.9091 61.8L94.9909 51.5L85.9091 40.9548L87.1364 27.2214L73.6364 24.2786L66.5182 12.5071L54 17.9024L41.2364 12.5071L34.3636 24.2786L20.8636 27.2214L22.0909 40.9548L13.0091 51.5L22.0909 61.8L20.8636 75.7786L34.3636 78.7214L41.4818 90.4929ZM48.8455 68.9119L76.5818 41.2L69.7091 34.0881L48.8455 54.9333L38.2909 44.6333L31.4182 51.5L48.8455 68.9119Z" fill="#FFB3B6"/>
</svg>
