<svg width="97" height="127" viewBox="0 0 97 127" fill="none" xmlns="http://www.w3.org/2000/svg">
<path d="M34.4047 70.7571L39.7094 53.5214L25.7656 42.3333H43.0437L48.5 25.4L53.9562 42.3333H71.2344L57.1391 53.5214L62.4438 70.7571L48.5 60.0226L34.4047 70.7571ZM12.125 127V80.2821C8.28542 76.0488 5.30469 71.2107 3.18281 65.7679C1.06094 60.325 0 54.5294 0 48.381C0 34.8746 4.69844 23.4345 14.0953 14.0607C23.4922 4.6869 34.9604 0 48.5 0C62.0396 0 73.5078 4.6869 82.9047 14.0607C92.3016 23.4345 97 34.8746 97 48.381C97 54.5294 95.9391 60.325 93.8172 65.7679C91.6953 71.2107 88.7146 76.0488 84.875 80.2821V127L48.5 114.905L12.125 127ZM48.5 84.6667C58.6042 84.6667 67.1927 81.1389 74.2656 74.0833C81.3385 67.0278 84.875 58.4603 84.875 48.381C84.875 38.3016 81.3385 29.7341 74.2656 22.6786C67.1927 15.623 58.6042 12.0952 48.5 12.0952C38.3958 12.0952 29.8073 15.623 22.7344 22.6786C15.6615 29.7341 12.125 38.3016 12.125 48.381C12.125 58.4603 15.6615 67.0278 22.7344 74.0833C29.8073 81.1389 38.3958 84.6667 48.5 84.6667ZM24.25 109.008L48.5 102.81L72.75 109.008V90.2607C69.2135 92.2766 65.3992 93.8641 61.307 95.0232C57.2148 96.1823 52.9458 96.7619 48.5 96.7619C44.0542 96.7619 39.7852 96.1823 35.693 95.0232C31.6008 93.8641 27.7865 92.2766 24.25 90.2607V109.008Z" fill="white"/>
</svg>
