<svg width="108" height="107" viewBox="0 0 108 107" fill="none" xmlns="http://www.w3.org/2000/svg">
<path d="M54 53.5C46.575 53.5 40.2188 50.8807 34.9313 45.6422C29.6438 40.4036 27 34.1063 27 26.75C27 19.3937 29.6438 13.0964 34.9313 7.85781C40.2188 2.61927 46.575 0 54 0C61.425 0 67.7812 2.61927 73.0687 7.85781C78.3562 13.0964 81 19.3937 81 26.75C81 34.1063 78.3562 40.4036 73.0687 45.6422C67.7812 50.8807 61.425 53.5 54 53.5ZM0 107V88.275C0 84.4854 0.984375 81.0023 2.95312 77.8258C4.92187 74.6492 7.5375 72.225 10.8 70.5531C17.775 67.0979 24.8625 64.5065 32.0625 62.7789C39.2625 61.0513 46.575 60.1875 54 60.1875C61.425 60.1875 68.7375 61.0513 75.9375 62.7789C83.1375 64.5065 90.225 67.0979 97.2 70.5531C100.462 72.225 103.078 74.6492 105.047 77.8258C107.016 81.0023 108 84.4854 108 88.275V107H0Z" fill="#B80035"/>
</svg>
