<svg width="34" height="34" viewBox="0 0 34 34" fill="none" xmlns="http://www.w3.org/2000/svg">
<path d="M16.915 27.2C17.51 27.2 18.0129 26.9946 18.4237 26.5838C18.8346 26.1729 19.04 25.67 19.04 25.075C19.04 24.48 18.8346 23.9771 18.4237 23.5663C18.0129 23.1554 17.51 22.95 16.915 22.95C16.32 22.95 15.8171 23.1554 15.4063 23.5663C14.9954 23.9771 14.79 24.48 14.79 25.075C14.79 25.67 14.9954 26.1729 15.4063 26.5838C15.8171 26.9946 16.32 27.2 16.915 27.2ZM15.385 20.655H18.53C18.53 19.72 18.6362 18.9833 18.8487 18.445C19.0612 17.9067 19.6633 17.17 20.655 16.235C21.3917 15.4983 21.9725 14.7971 22.3975 14.1313C22.8225 13.4654 23.035 12.665 23.035 11.73C23.035 10.1433 22.4542 8.925 21.2925 8.075C20.1308 7.225 18.7567 6.8 17.17 6.8C15.555 6.8 14.2446 7.225 13.2388 8.075C12.2329 8.925 11.5317 9.945 11.135 11.135L13.94 12.24C14.0817 11.73 14.4004 11.1775 14.8963 10.5825C15.3921 9.9875 16.15 9.69 17.17 9.69C18.0767 9.69 18.7567 9.93792 19.21 10.4337C19.6633 10.9296 19.89 11.475 19.89 12.07C19.89 12.6367 19.72 13.1679 19.38 13.6638C19.04 14.1596 18.615 14.62 18.105 15.045C16.8583 16.15 16.0933 16.9858 15.81 17.5525C15.5267 18.1192 15.385 19.1533 15.385 20.655ZM17 34C14.6483 34 12.4383 33.5538 10.37 32.6613C8.30167 31.7688 6.5025 30.5575 4.9725 29.0275C3.4425 27.4975 2.23125 25.6983 1.33875 23.63C0.44625 21.5617 0 19.3517 0 17C0 14.6483 0.44625 12.4383 1.33875 10.37C2.23125 8.30167 3.4425 6.5025 4.9725 4.9725C6.5025 3.4425 8.30167 2.23125 10.37 1.33875C12.4383 0.44625 14.6483 0 17 0C19.3517 0 21.5617 0.44625 23.63 1.33875C25.6983 2.23125 27.4975 3.4425 29.0275 4.9725C30.5575 6.5025 31.7688 8.30167 32.6613 10.37C33.5538 12.4383 34 14.6483 34 17C34 19.3517 33.5538 21.5617 32.6613 23.63C31.7688 25.6983 30.5575 27.4975 29.0275 29.0275C27.4975 30.5575 25.6983 31.7688 23.63 32.6613C21.5617 33.5538 19.3517 34 17 34ZM17 30.6C20.7967 30.6 24.0125 29.2825 26.6475 26.6475C29.2825 24.0125 30.6 20.7967 30.6 17C30.6 13.2033 29.2825 9.9875 26.6475 7.3525C24.0125 4.7175 20.7967 3.4 17 3.4C13.2033 3.4 9.9875 4.7175 7.3525 7.3525C4.7175 9.9875 3.4 13.2033 3.4 17C3.4 20.7967 4.7175 24.0125 7.3525 26.6475C9.9875 29.2825 13.2033 30.6 17 30.6Z" fill="#B80035"/>
</svg>
