<svg width="36" height="28" viewBox="0 0 36 28" fill="none" xmlns="http://www.w3.org/2000/svg">
<path d="M3.6 28C2.61 28 1.7625 27.6573 1.0575 26.9719C0.3525 26.2865 0 25.4625 0 24.5V3.5C0 2.5375 0.3525 1.71354 1.0575 1.02812C1.7625 0.342708 2.61 0 3.6 0H32.4C33.39 0 34.2375 0.342708 34.9425 1.02812C35.6475 1.71354 36 2.5375 36 3.5V24.5C36 25.4625 35.6475 26.2865 34.9425 26.9719C34.2375 27.6573 33.39 28 32.4 28H3.6ZM18 15.75L3.6 7V24.5H32.4V7L18 15.75ZM18 12.25L32.4 3.5H3.6L18 12.25Z" fill="#B80035"/>
</svg>
