<svg width="43" height="11" viewBox="0 0 43 11" fill="none" xmlns="http://www.w3.org/2000/svg">
<path d="M5.375 11C3.89687 11 2.63151 10.4615 1.57891 9.38437C0.526302 8.30729 0 7.0125 0 5.5C0 3.9875 0.526302 2.69271 1.57891 1.61562C2.63151 0.538542 3.89687 0 5.375 0C6.85313 0 8.11849 0.538542 9.17109 1.61562C10.2237 2.69271 10.75 3.9875 10.75 5.5C10.75 7.0125 10.2237 8.30729 9.17109 9.38437C8.11849 10.4615 6.85313 11 5.375 11ZM21.5 11C20.0219 11 18.7565 10.4615 17.7039 9.38437C16.6513 8.30729 16.125 7.0125 16.125 5.5C16.125 3.9875 16.6513 2.69271 17.7039 1.61562C18.7565 0.538542 20.0219 0 21.5 0C22.9781 0 24.2435 0.538542 25.2961 1.61562C26.3487 2.69271 26.875 3.9875 26.875 5.5C26.875 7.0125 26.3487 8.30729 25.2961 9.38437C24.2435 10.4615 22.9781 11 21.5 11ZM37.625 11C36.1469 11 34.8815 10.4615 33.8289 9.38437C32.7763 8.30729 32.25 7.0125 32.25 5.5C32.25 3.9875 32.7763 2.69271 33.8289 1.61562C34.8815 0.538542 36.1469 0 37.625 0C39.1031 0 40.3685 0.538542 41.4211 1.61562C42.4737 2.69271 43 3.9875 43 5.5C43 7.0125 42.4737 8.30729 41.4211 9.38437C40.3685 10.4615 39.1031 11 37.625 11Z" fill="#5C3F40"/>
</svg>
