<svg width="27" height="31" viewBox="0 0 27 31" fill="none" xmlns="http://www.w3.org/2000/svg">
<path d="M13.0666 30.7332L8.6333 26.2665H4.19997C3.02219 26.2665 2.02775 25.861 1.21663 25.0499C0.405523 24.2388 -3.26633e-05 23.2443 -3.26633e-05 22.0665V4.19987C-3.26633e-05 3.02209 0.405523 2.02765 1.21663 1.21654C2.02775 0.405425 3.02219 -0.0001297 4.19997 -0.0001297H22.0666C23.2444 -0.0001297 24.2389 0.405425 25.05 1.21654C25.8611 2.02765 26.2666 3.02209 26.2666 4.19987V22.0665C26.2666 23.2443 25.8611 24.2388 25.05 25.0499C24.2389 25.861 23.2444 26.2665 22.0666 26.2665H17.5333L13.0666 30.7332ZM13.1333 15.1332C14.5111 15.1332 15.6777 14.6554 16.6333 13.6999C17.5889 12.7443 18.0666 11.5776 18.0666 10.1999C18.0666 8.82209 17.5889 7.66098 16.6333 6.71654C15.6777 5.77209 14.5111 5.29987 13.1333 5.29987C11.7555 5.29987 10.5889 5.77209 9.6333 6.71654C8.67775 7.66098 8.19997 8.82209 8.19997 10.1999C8.19997 11.5776 8.67775 12.7443 9.6333 13.6999C10.5889 14.6554 11.7555 15.1332 13.1333 15.1332ZM4.19997 22.0665H22.0666C22.0666 21.6888 22.0666 21.311 22.0666 20.9332C22.0666 20.5554 22.0666 20.1776 22.0666 19.7999C20.8666 18.7332 19.5389 17.9221 18.0833 17.3665C16.6277 16.811 14.9777 16.5332 13.1333 16.5332C11.2889 16.5332 9.63886 16.8221 8.1833 17.3999C6.72775 17.9776 5.39997 18.7999 4.19997 19.8665C4.19997 20.2443 4.19997 20.611 4.19997 20.9665C4.19997 21.3221 4.19997 21.6888 4.19997 22.0665Z" fill="#B80035"/>
</svg>
