<svg width="34" height="38" viewBox="0 0 34 38" fill="none" xmlns="http://www.w3.org/2000/svg">
<path d="M3.77778 38C2.73889 38 1.84954 37.6279 1.10972 36.8838C0.369907 36.1396 0 35.245 0 34.2V7.6C0 6.555 0.369907 5.66042 1.10972 4.91625C1.84954 4.17208 2.73889 3.8 3.77778 3.8H5.66667V0H9.44444V3.8H24.5556V0H28.3333V3.8H30.2222C31.2611 3.8 32.1505 4.17208 32.8903 4.91625C33.6301 5.66042 34 6.555 34 7.6V34.2C34 35.245 33.6301 36.1396 32.8903 36.8838C32.1505 37.6279 31.2611 38 30.2222 38H3.77778ZM3.77778 34.2H30.2222V15.2H3.77778V34.2ZM3.77778 11.4H30.2222V7.6H3.77778V11.4ZM17 22.8C16.4648 22.8 16.0162 22.6179 15.6542 22.2537C15.2921 21.8896 15.1111 21.4383 15.1111 20.9C15.1111 20.3617 15.2921 19.9104 15.6542 19.5463C16.0162 19.1821 16.4648 19 17 19C17.5352 19 17.9838 19.1821 18.3458 19.5463C18.7079 19.9104 18.8889 20.3617 18.8889 20.9C18.8889 21.4383 18.7079 21.8896 18.3458 22.2537C17.9838 22.6179 17.5352 22.8 17 22.8ZM9.44444 22.8C8.90926 22.8 8.46065 22.6179 8.09861 22.2537C7.73657 21.8896 7.55556 21.4383 7.55556 20.9C7.55556 20.3617 7.73657 19.9104 8.09861 19.5463C8.46065 19.1821 8.90926 19 9.44444 19C9.97963 19 10.4282 19.1821 10.7903 19.5463C11.1523 19.9104 11.3333 20.3617 11.3333 20.9C11.3333 21.4383 11.1523 21.8896 10.7903 22.2537C10.4282 22.6179 9.97963 22.8 9.44444 22.8ZM24.5556 22.8C24.0204 22.8 23.5718 22.6179 23.2097 22.2537C22.8477 21.8896 22.6667 21.4383 22.6667 20.9C22.6667 20.3617 22.8477 19.9104 23.2097 19.5463C23.5718 19.1821 24.0204 19 24.5556 19C25.0907 19 25.5394 19.1821 25.9014 19.5463C26.2634 19.9104 26.4444 20.3617 26.4444 20.9C26.4444 21.4383 26.2634 21.8896 25.9014 22.2537C25.5394 22.6179 25.0907 22.8 24.5556 22.8ZM17 30.4C16.4648 30.4 16.0162 30.2179 15.6542 29.8537C15.2921 29.4896 15.1111 29.0383 15.1111 28.5C15.1111 27.9617 15.2921 27.5104 15.6542 27.1463C16.0162 26.7821 16.4648 26.6 17 26.6C17.5352 26.6 17.9838 26.7821 18.3458 27.1463C18.7079 27.5104 18.8889 27.9617 18.8889 28.5C18.8889 29.0383 18.7079 29.4896 18.3458 29.8537C17.9838 30.2179 17.5352 30.4 17 30.4ZM9.44444 30.4C8.90926 30.4 8.46065 30.2179 8.09861 29.8537C7.73657 29.4896 7.55556 29.0383 7.55556 28.5C7.55556 27.9617 7.73657 27.5104 8.09861 27.1463C8.46065 26.7821 8.90926 26.6 9.44444 26.6C9.97963 26.6 10.4282 26.7821 10.7903 27.1463C11.1523 27.5104 11.3333 27.9617 11.3333 28.5C11.3333 29.0383 11.1523 29.4896 10.7903 29.8537C10.4282 30.2179 9.97963 30.4 9.44444 30.4ZM24.5556 30.4C24.0204 30.4 23.5718 30.2179 23.2097 29.8537C22.8477 29.4896 22.6667 29.0383 22.6667 28.5C22.6667 27.9617 22.8477 27.5104 23.2097 27.1463C23.5718 26.7821 24.0204 26.6 24.5556 26.6C25.0907 26.6 25.5394 26.7821 25.9014 27.1463C26.2634 27.5104 26.4444 27.9617 26.4444 28.5C26.4444 29.0383 26.2634 29.4896 25.9014 29.8537C25.5394 30.2179 25.0907 30.4 24.5556 30.4Z" fill="#B80035"/>
</svg>
