<svg width="27" height="19" viewBox="0 0 27 19" fill="none" xmlns="http://www.w3.org/2000/svg">
<path d="M3.90016 18.8664C2.70016 17.6442 1.75016 16.2276 1.05016 14.6164C0.350163 13.0053 0.00016284 11.2775 0.00016284 9.43311C0.00016284 7.56644 0.350163 5.82755 1.05016 4.21644C1.75016 2.60533 2.70016 1.19977 3.90016 -0.000226974L5.80016 1.89977C4.82238 2.87755 4.05572 4.01088 3.50016 5.29977C2.94461 6.58866 2.66683 7.96644 2.66683 9.43311C2.66683 10.922 2.94461 12.3109 3.50016 13.5998C4.05572 14.8887 4.82238 16.0109 5.80016 16.9664L3.90016 18.8664ZM7.66683 15.0998C6.95572 14.3664 6.38905 13.5164 5.96683 12.5498C5.54461 11.5831 5.3335 10.5442 5.3335 9.43311C5.3335 8.29977 5.54461 7.24977 5.96683 6.28311C6.38905 5.31644 6.95572 4.47755 7.66683 3.76644L9.56683 5.66644C9.07794 6.15533 8.69461 6.72199 8.41683 7.36644C8.13905 8.01088 8.00016 8.69977 8.00016 9.43311C8.00016 10.1664 8.13905 10.8553 8.41683 11.4998C8.69461 12.1442 9.07794 12.7109 9.56683 13.1998L7.66683 15.0998ZM13.3335 12.0998C12.6002 12.0998 11.9724 11.8387 11.4502 11.3164C10.9279 10.7942 10.6668 10.1664 10.6668 9.43311C10.6668 8.69977 10.9279 8.07199 11.4502 7.54977C11.9724 7.02755 12.6002 6.76644 13.3335 6.76644C14.0668 6.76644 14.6946 7.02755 15.2168 7.54977C15.7391 8.07199 16.0002 8.69977 16.0002 9.43311C16.0002 10.1664 15.7391 10.7942 15.2168 11.3164C14.6946 11.8387 14.0668 12.0998 13.3335 12.0998ZM19.0002 15.0998L17.1002 13.1998C17.5891 12.7109 17.9724 12.1442 18.2502 11.4998C18.5279 10.8553 18.6668 10.1664 18.6668 9.43311C18.6668 8.69977 18.5279 8.01088 18.2502 7.36644C17.9724 6.72199 17.5891 6.15533 17.1002 5.66644L19.0002 3.76644C19.7113 4.47755 20.2779 5.31644 20.7002 6.28311C21.1224 7.24977 21.3335 8.29977 21.3335 9.43311C21.3335 10.5442 21.1224 11.5831 20.7002 12.5498C20.2779 13.5164 19.7113 14.3664 19.0002 15.0998ZM22.7668 18.8664L20.8668 16.9664C21.8446 15.9887 22.6113 14.8553 23.1668 13.5664C23.7224 12.2775 24.0002 10.8998 24.0002 9.43311C24.0002 7.94422 23.7224 6.55533 23.1668 5.26644C22.6113 3.97755 21.8446 2.85533 20.8668 1.89977L22.7668 -0.000226974C23.9668 1.19977 24.9168 2.60533 25.6168 4.21644C26.3168 5.82755 26.6668 7.56644 26.6668 9.43311C26.6668 11.2775 26.3168 13.0053 25.6168 14.6164C24.9168 16.2276 23.9668 17.6442 22.7668 18.8664Z" fill="#B80035"/>
</svg>
