<svg width="98" height="127" viewBox="0 0 98 127" fill="none" xmlns="http://www.w3.org/2000/svg">
<path d="M34.7594 70.7571L40.1188 53.5214L26.0313 42.3333H43.4875L49 25.4L54.5125 42.3333H71.9688L57.7281 53.5214L63.0875 70.7571L49 60.0226L34.7594 70.7571ZM12.25 127V80.2821C8.37083 76.0488 5.35938 71.2107 3.21563 65.7679C1.07188 60.325 0 54.5294 0 48.381C0 34.8746 4.74688 23.4345 14.2406 14.0607C23.7344 4.68691 35.3208 0 49 0C62.6792 0 74.2656 4.68691 83.7594 14.0607C93.2531 23.4345 98 34.8746 98 48.381C98 54.5294 96.9281 60.325 94.7844 65.7679C92.6406 71.2107 89.6292 76.0488 85.75 80.2821V127L49 114.905L12.25 127ZM49 84.6667C59.2083 84.6667 67.8854 81.1389 75.0312 74.0833C82.1771 67.0278 85.75 58.4603 85.75 48.381C85.75 38.3016 82.1771 29.7341 75.0312 22.6786C67.8854 15.623 59.2083 12.0952 49 12.0952C38.7917 12.0952 30.1146 15.623 22.9688 22.6786C15.8229 29.7341 12.25 38.3016 12.25 48.381C12.25 58.4603 15.8229 67.0278 22.9688 74.0833C30.1146 81.1389 38.7917 84.6667 49 84.6667Z" fill="#B80035"/>
</svg>
