<svg width="118" height="80" viewBox="0 0 118 80" fill="none" xmlns="http://www.w3.org/2000/svg">
<path d="M59 64C65.7045 64 71.4034 61.6667 76.0966 57C80.7898 52.3333 83.1364 46.6667 83.1364 40C83.1364 33.3333 80.7898 27.6667 76.0966 23C71.4034 18.3333 65.7045 16 59 16C52.2955 16 46.5966 18.3333 41.9034 23C37.2102 27.6667 34.8636 33.3333 34.8636 40C34.8636 46.6667 37.2102 52.3333 41.9034 57C46.5966 61.6667 52.2955 64 59 64ZM59 54.4C54.9773 54.4 51.5579 53 48.742 50.2C45.9261 47.4 44.5182 44 44.5182 40C44.5182 36 45.9261 32.6 48.742 29.8C51.5579 27 54.9773 25.6 59 25.6C63.0227 25.6 66.442 27 69.2579 29.8C72.0739 32.6 73.4818 36 73.4818 40C73.4818 44 72.0739 47.4 69.2579 50.2C66.442 53 63.0227 54.4 59 54.4ZM59 80C45.9485 80 34.0591 76.3778 23.3318 69.1333C12.6045 61.8889 4.82727 52.1778 0 40C4.82727 27.8222 12.6045 18.1111 23.3318 10.8667C34.0591 3.62222 45.9485 0 59 0C72.0515 0 83.9409 3.62222 94.6682 10.8667C105.395 18.1111 113.173 27.8222 118 40C113.173 52.1778 105.395 61.8889 94.6682 69.1333C83.9409 76.3778 72.0515 80 59 80ZM59 69.3333C69.1015 69.3333 78.3761 66.6889 86.8239 61.4C95.2716 56.1111 101.73 48.9778 106.2 40C101.73 31.0222 95.2716 23.8889 86.8239 18.6C78.3761 13.3111 69.1015 10.6667 59 10.6667C48.8985 10.6667 39.6239 13.3111 31.1761 18.6C22.7284 23.8889 16.2697 31.0222 11.8 40C16.2697 48.9778 22.7284 56.1111 31.1761 61.4C39.6239 66.6889 48.8985 69.3333 59 69.3333Z" fill="#906F70"/>
</svg>
