<svg width="90" height="118" viewBox="0 0 90 118" fill="none" xmlns="http://www.w3.org/2000/svg">
<path d="M11.25 118C8.15625 118 5.50781 116.9 3.30469 114.699C1.10156 112.498 0 109.852 0 106.762V50.5714C0 47.4809 1.10156 44.8353 3.30469 42.6345C5.50781 40.4337 8.15625 39.3333 11.25 39.3333H16.875V28.0952C16.875 20.3222 19.6172 13.6964 25.1016 8.21786C30.5859 2.73929 37.2188 0 45 0C52.7812 0 59.4141 2.73929 64.8984 8.21786C70.3828 13.6964 73.125 20.3222 73.125 28.0952V39.3333H78.75C81.8438 39.3333 84.4922 40.4337 86.6953 42.6345C88.8984 44.8353 90 47.4809 90 50.5714V106.762C90 109.852 88.8984 112.498 86.6953 114.699C84.4922 116.9 81.8438 118 78.75 118H11.25ZM11.25 106.762H78.75V50.5714H11.25V106.762ZM45 89.9048C48.0938 89.9048 50.7422 88.8044 52.9453 86.6036C55.1484 84.4028 56.25 81.7571 56.25 78.6667C56.25 75.5762 55.1484 72.9305 52.9453 70.7298C50.7422 68.529 48.0938 67.4286 45 67.4286C41.9062 67.4286 39.2578 68.529 37.0547 70.7298C34.8516 72.9305 33.75 75.5762 33.75 78.6667C33.75 81.7571 34.8516 84.4028 37.0547 86.6036C39.2578 88.8044 41.9062 89.9048 45 89.9048ZM28.125 39.3333H61.875V28.0952C61.875 23.4127 60.2344 19.4325 56.9531 16.1548C53.6719 12.877 49.6875 11.2381 45 11.2381C40.3125 11.2381 36.3281 12.877 33.0469 16.1548C29.7656 19.4325 28.125 23.4127 28.125 28.0952V39.3333Z" fill="#906F70"/>
</svg>
