<svg width="364" height="404" viewBox="0 0 364 404" fill="none" xmlns="http://www.w3.org/2000/svg">
<path d="M153.689 304.01L296.256 161.6L267.944 133.32L153.689 247.45L96.0556 189.88L67.7444 218.16L153.689 304.01ZM40.4444 404C29.3222 404 19.8009 400.044 11.8806 392.133C3.96018 384.221 0 374.71 0 363.6V80.8C0 69.69 3.96018 60.1792 11.8806 52.2675C19.8009 44.3558 29.3222 40.4 40.4444 40.4H125.378C129.759 28.28 137.09 18.5167 147.369 11.11C157.649 3.70333 169.193 0 182 0C194.807 0 206.351 3.70333 216.631 11.11C226.91 18.5167 234.241 28.28 238.622 40.4H323.556C334.678 40.4 344.199 44.3558 352.119 52.2675C360.04 60.1792 364 69.69 364 80.8V363.6C364 374.71 360.04 384.221 352.119 392.133C344.199 400.044 334.678 404 323.556 404H40.4444ZM40.4444 363.6H323.556V80.8H40.4444V363.6ZM182 65.65C186.381 65.65 190.005 64.2192 192.869 61.3575C195.734 58.4958 197.167 54.8767 197.167 50.5C197.167 46.1233 195.734 42.5042 192.869 39.6425C190.005 36.7808 186.381 35.35 182 35.35C177.619 35.35 173.995 36.7808 171.131 39.6425C168.266 42.5042 166.833 46.1233 166.833 50.5C166.833 54.8767 168.266 58.4958 171.131 61.3575C173.995 64.2192 177.619 65.65 182 65.65Z" fill="white" fill-opacity="0.7"/>
</svg>
