<svg width="259" height="323" viewBox="0 0 259 323" fill="none" xmlns="http://www.w3.org/2000/svg">
<path d="M0 274.55V242.25H32.375V129.2C32.375 106.859 39.1198 87.0081 52.6094 69.6469C66.099 52.2856 83.6354 40.9133 105.219 35.53V24.225C105.219 17.4958 107.579 11.776 112.301 7.06563C117.022 2.35521 122.755 0 129.5 0C136.245 0 141.978 2.35521 146.699 7.06563C151.421 11.776 153.781 17.4958 153.781 24.225V35.53C175.365 40.9133 192.901 52.2856 206.391 69.6469C219.88 87.0081 226.625 106.859 226.625 129.2V242.25H259V274.55H0ZM129.5 323C120.597 323 112.975 319.837 106.635 313.512C100.295 307.186 97.125 299.582 97.125 290.7H161.875C161.875 299.582 158.705 307.186 152.365 313.512C146.025 319.837 138.403 323 129.5 323ZM64.75 242.25H194.25V129.2C194.25 111.435 187.91 96.2271 175.23 83.5763C162.549 70.9254 147.306 64.6 129.5 64.6C111.694 64.6 96.4505 70.9254 83.7703 83.5763C71.0901 96.2271 64.75 111.435 64.75 129.2V242.25Z" fill="#5C3F40"/>
</svg>
