<svg width="264" height="346" viewBox="0 0 264 346" fill="none" xmlns="http://www.w3.org/2000/svg">
<path d="M93.6375 192.771L108.075 145.814L70.125 115.333H117.15L132 69.2L146.85 115.333H193.875L155.513 145.814L169.95 192.771L132 163.526L93.6375 192.771ZM33 346V218.721C22.55 207.188 14.4375 194.007 8.6625 179.179C2.8875 164.35 0 148.56 0 131.81C0 95.0127 12.7875 63.8452 38.3625 38.3071C63.9375 12.769 95.15 0 132 0C168.85 0 200.063 12.769 225.638 38.3071C251.213 63.8452 264 95.0127 264 131.81C264 148.56 261.113 164.35 255.338 179.179C249.563 194.007 241.45 207.188 231 218.721V346L132 313.048L33 346ZM132 230.667C159.5 230.667 182.875 221.056 202.125 201.833C221.375 182.611 231 159.27 231 131.81C231 104.349 221.375 81.0079 202.125 61.7857C182.875 42.5635 159.5 32.9524 132 32.9524C104.5 32.9524 81.125 42.5635 61.875 61.7857C42.625 81.0079 33 104.349 33 131.81C33 159.27 42.625 182.611 61.875 201.833C81.125 221.056 104.5 230.667 132 230.667ZM66 296.983L132 280.095L198 296.983V245.907C188.375 251.399 177.994 255.724 166.856 258.882C155.719 262.04 144.1 263.619 132 263.619C119.9 263.619 108.281 262.04 97.1437 258.882C86.0062 255.724 75.625 251.399 66 245.907V296.983Z" fill="white"/>
</svg>
