<svg width="323" height="323" viewBox="0 0 323 323" fill="none" xmlns="http://www.w3.org/2000/svg">
<path d="M160.692 258.4C166.345 258.4 171.123 256.449 175.026 252.546C178.929 248.643 180.88 243.865 180.88 238.212C180.88 232.56 178.929 227.782 175.026 223.879C171.123 219.976 166.345 218.025 160.692 218.025C155.04 218.025 150.262 219.976 146.359 223.879C142.456 227.782 140.505 232.56 140.505 238.212C140.505 243.865 142.456 248.643 146.359 252.546C150.262 256.449 155.04 258.4 160.692 258.4ZM146.157 196.222H176.035C176.035 187.34 177.044 180.342 179.063 175.228C181.082 170.113 186.802 163.115 196.222 154.232C203.221 147.234 208.739 140.572 212.776 134.247C216.814 127.921 218.832 120.317 218.832 111.435C218.832 96.3617 213.315 84.7875 202.279 76.7125C191.243 68.6375 178.188 64.6 163.115 64.6C147.773 64.6 135.324 68.6375 125.768 76.7125C116.213 84.7875 109.551 94.4775 105.783 105.783L132.43 116.28C133.776 111.435 136.804 106.186 141.514 100.534C146.225 94.8812 153.425 92.055 163.115 92.055C171.728 92.055 178.188 94.4102 182.495 99.1206C186.802 103.831 188.955 109.012 188.955 114.665C188.955 120.048 187.34 125.095 184.11 129.806C180.88 134.516 176.842 138.89 171.997 142.928C160.154 153.425 152.887 161.365 150.195 166.749C147.503 172.132 146.157 181.957 146.157 196.222ZM161.5 323C139.159 323 118.164 318.761 98.515 310.282C78.8658 301.803 61.7737 290.296 47.2387 275.761C32.7037 261.226 21.1969 244.134 12.7181 224.485C4.23938 204.836 0 183.841 0 161.5C0 139.159 4.23938 118.164 12.7181 98.515C21.1969 78.8658 32.7037 61.7737 47.2387 47.2387C61.7737 32.7037 78.8658 21.1969 98.515 12.7181C118.164 4.23938 139.159 0 161.5 0C183.841 0 204.836 4.23938 224.485 12.7181C244.134 21.1969 261.226 32.7037 275.761 47.2387C290.296 61.7737 301.803 78.8658 310.282 98.515C318.761 118.164 323 139.159 323 161.5C323 183.841 318.761 204.836 310.282 224.485C301.803 244.134 290.296 261.226 275.761 275.761C261.226 290.296 244.134 301.803 224.485 310.282C204.836 318.761 183.841 323 161.5 323ZM161.5 290.7C197.568 290.7 228.119 278.184 253.151 253.151C278.184 228.119 290.7 197.568 290.7 161.5C290.7 125.432 278.184 94.8812 253.151 69.8487C228.119 44.8162 197.568 32.3 161.5 32.3C125.432 32.3 94.8812 44.8162 69.8487 69.8487C44.8162 94.8812 32.3 125.432 32.3 161.5C32.3 197.568 44.8162 228.119 69.8487 253.151C94.8812 278.184 125.432 290.7 161.5 290.7Z" fill="#5C3F40"/>
</svg>
