<svg width="354" height="354" viewBox="0 0 354 354" fill="none" xmlns="http://www.w3.org/2000/svg">
<path d="M78.6667 275.333H118V137.667H78.6667V275.333ZM157.333 275.333H196.667V78.6667H157.333V275.333ZM236 275.333H275.333V196.667H236V275.333ZM39.3333 354C28.5167 354 19.2569 350.149 11.5542 342.446C3.85139 334.743 0 325.483 0 314.667V39.3333C0 28.5167 3.85139 19.2569 11.5542 11.5542C19.2569 3.85139 28.5167 0 39.3333 0H314.667C325.483 0 334.743 3.85139 342.446 11.5542C350.149 19.2569 354 28.5167 354 39.3333V314.667C354 325.483 350.149 334.743 342.446 342.446C334.743 350.149 325.483 354 314.667 354H39.3333ZM39.3333 314.667H314.667V39.3333H39.3333V314.667Z" fill="white"/>
</svg>
