<svg width="358" height="358" viewBox="0 0 358 358" fill="none" xmlns="http://www.w3.org/2000/svg">
<path d="M330.156 358L204.856 232.7C194.911 240.656 183.475 246.954 170.547 251.594C157.619 256.235 143.863 258.556 129.278 258.556C93.1463 258.556 62.5671 246.042 37.5403 221.015C12.5134 195.988 0 165.409 0 129.278C0 93.1463 12.5134 62.5671 37.5403 37.5403C62.5671 12.5134 93.1463 0 129.278 0C165.409 0 195.988 12.5134 221.015 37.5403C246.042 62.5671 258.556 93.1463 258.556 129.278C258.556 143.863 256.235 157.619 251.594 170.547C246.954 183.475 240.656 194.911 232.7 204.856L358 330.156L330.156 358ZM129.278 218.778C154.139 218.778 175.271 210.076 192.674 192.674C210.076 175.271 218.778 154.139 218.778 129.278C218.778 104.417 210.076 83.2847 192.674 65.8819C175.271 48.4792 154.139 39.7778 129.278 39.7778C104.417 39.7778 83.2847 48.4792 65.8819 65.8819C48.4792 83.2847 39.7778 104.417 39.7778 129.278C39.7778 154.139 48.4792 175.271 65.8819 192.674C83.2847 210.076 104.417 218.778 129.278 218.778Z" fill="#5C3F40"/>
</svg>
