<svg width="364" height="404" viewBox="0 0 364 404" fill="none" xmlns="http://www.w3.org/2000/svg">
<path d="M40.4444 404C29.3222 404 19.8009 400.044 11.8806 392.133C3.96018 384.221 0 374.71 0 363.6V80.8C0 69.69 3.96018 60.1792 11.8806 52.2675C19.8009 44.3558 29.3222 40.4 40.4444 40.4H60.6667V0H101.111V40.4H262.889V0H303.333V40.4H323.556C334.678 40.4 344.199 44.3558 352.119 52.2675C360.04 60.1792 364 69.69 364 80.8V363.6C364 374.71 360.04 384.221 352.119 392.133C344.199 400.044 334.678 404 323.556 404H40.4444ZM40.4444 363.6H323.556V161.6H40.4444V363.6ZM40.4444 121.2H323.556V80.8H40.4444V121.2ZM182 242.4C176.27 242.4 171.468 240.464 167.592 236.593C163.716 232.721 161.778 227.923 161.778 222.2C161.778 216.477 163.716 211.679 167.592 207.808C171.468 203.936 176.27 202 182 202C187.73 202 192.532 203.936 196.408 207.808C200.284 211.679 202.222 216.477 202.222 222.2C202.222 227.923 200.284 232.721 196.408 236.593C192.532 240.464 187.73 242.4 182 242.4ZM101.111 242.4C95.3815 242.4 90.5787 240.464 86.7028 236.593C82.8268 232.721 80.8889 227.923 80.8889 222.2C80.8889 216.477 82.8268 211.679 86.7028 207.808C90.5787 203.936 95.3815 202 101.111 202C106.841 202 111.644 203.936 115.519 207.808C119.395 211.679 121.333 216.477 121.333 222.2C121.333 227.923 119.395 232.721 115.519 236.593C111.644 240.464 106.841 242.4 101.111 242.4ZM262.889 242.4C257.159 242.4 252.356 240.464 248.481 236.593C244.605 232.721 242.667 227.923 242.667 222.2C242.667 216.477 244.605 211.679 248.481 207.808C252.356 203.936 257.159 202 262.889 202C268.619 202 273.421 203.936 277.297 207.808C281.173 211.679 283.111 216.477 283.111 222.2C283.111 227.923 281.173 232.721 277.297 236.593C273.421 240.464 268.619 242.4 262.889 242.4ZM182 323.2C176.27 323.2 171.468 321.264 167.592 317.393C163.716 313.521 161.778 308.723 161.778 303C161.778 297.277 163.716 292.479 167.592 288.608C171.468 284.736 176.27 282.8 182 282.8C187.73 282.8 192.532 284.736 196.408 288.608C200.284 292.479 202.222 297.277 202.222 303C202.222 308.723 200.284 313.521 196.408 317.393C192.532 321.264 187.73 323.2 182 323.2ZM101.111 323.2C95.3815 323.2 90.5787 321.264 86.7028 317.393C82.8268 313.521 80.8889 308.723 80.8889 303C80.8889 297.277 82.8268 292.479 86.7028 288.608C90.5787 284.736 95.3815 282.8 101.111 282.8C106.841 282.8 111.644 284.736 115.519 288.608C119.395 292.479 121.333 297.277 121.333 303C121.333 308.723 119.395 313.521 115.519 317.393C111.644 321.264 106.841 323.2 101.111 323.2ZM262.889 323.2C257.159 323.2 252.356 321.264 248.481 317.393C244.605 313.521 242.667 308.723 242.667 303C242.667 297.277 244.605 292.479 248.481 288.608C252.356 284.736 257.159 282.8 262.889 282.8C268.619 282.8 273.421 284.736 277.297 288.608C281.173 292.479 283.111 297.277 283.111 303C283.111 308.723 281.173 313.521 277.297 317.393C273.421 321.264 268.619 323.2 262.889 323.2Z" fill="white"/>
</svg>
