<svg width="347" height="345" viewBox="0 0 347 345" fill="none" xmlns="http://www.w3.org/2000/svg">
<path d="M126.025 345L119.119 289.8C115.379 288.362 111.854 286.638 108.545 284.625C105.237 282.612 102 280.456 98.8346 278.156L47.4751 299.719L0 217.781L44.454 184.144C44.1663 182.131 44.0224 180.191 44.0224 178.322C44.0224 176.453 44.0224 174.513 44.0224 172.5C44.0224 170.487 44.0224 168.547 44.0224 166.678C44.0224 164.809 44.1663 162.869 44.454 160.856L0 127.219L47.4751 45.2812L98.8346 66.8438C102 64.5437 105.308 62.3875 108.761 60.375C112.214 58.3625 115.667 56.6375 119.119 55.2L126.025 0H220.975L227.881 55.2C231.621 56.6375 235.146 58.3625 238.455 60.375C241.763 62.3875 245 64.5437 248.165 66.8438L299.525 45.2812L347 127.219L302.546 160.856C302.834 162.869 302.978 164.809 302.978 166.678C302.978 168.547 302.978 170.487 302.978 172.5C302.978 174.513 302.978 176.453 302.978 178.322C302.978 180.191 302.69 182.131 302.114 184.144L346.568 217.781L299.093 299.719L248.165 278.156C245 280.456 241.692 282.612 238.239 284.625C234.786 286.638 231.333 288.362 227.881 289.8L220.975 345H126.025ZM156.236 310.5H190.332L196.374 264.788C205.294 262.488 213.566 259.109 221.191 254.653C228.816 250.197 235.793 244.806 242.123 238.481L284.851 256.163L301.683 226.837L264.566 198.806C266.005 194.781 267.012 190.541 267.587 186.084C268.163 181.628 268.45 177.1 268.45 172.5C268.45 167.9 268.163 163.372 267.587 158.916C267.012 154.459 266.005 150.219 264.566 146.194L301.683 118.162L284.851 88.8375L242.123 106.95C235.793 100.337 228.816 94.8031 221.191 90.3469C213.566 85.8906 205.294 82.5125 196.374 80.2125L190.764 34.5H156.668L150.626 80.2125C141.706 82.5125 133.434 85.8906 125.809 90.3469C118.184 94.8031 111.207 100.194 104.877 106.519L62.1493 88.8375L45.3172 118.162L82.4341 145.762C80.9954 150.075 79.9884 154.387 79.4129 158.7C78.8375 163.012 78.5498 167.613 78.5498 172.5C78.5498 177.1 78.8375 181.556 79.4129 185.869C79.9884 190.181 80.9954 194.494 82.4341 198.806L45.3172 226.837L62.1493 256.163L104.877 238.05C111.207 244.663 118.184 250.197 125.809 254.653C133.434 259.109 141.706 262.488 150.626 264.788L156.236 310.5ZM174.363 232.875C191.051 232.875 205.294 226.981 217.091 215.194C228.888 203.406 234.786 189.175 234.786 172.5C234.786 155.825 228.888 141.594 217.091 129.806C205.294 118.019 191.051 112.125 174.363 112.125C157.387 112.125 143.073 118.019 131.42 129.806C119.767 141.594 113.94 155.825 113.94 172.5C113.94 189.175 119.767 203.406 131.42 215.194C143.073 226.981 157.387 232.875 174.363 232.875Z" fill="white" fill-opacity="0.7"/>
</svg>
