<svg width="107" height="107" viewBox="0 0 107 107" fill="none" xmlns="http://www.w3.org/2000/svg">
<path d="M53.5 53.5C46.1437 53.5 39.8464 50.8807 34.6078 45.6422C29.3693 40.4036 26.75 34.1063 26.75 26.75C26.75 19.3937 29.3693 13.0964 34.6078 7.85781C39.8464 2.61927 46.1437 0 53.5 0C60.8563 0 67.1536 2.61927 72.3922 7.85781C77.6307 13.0964 80.25 19.3937 80.25 26.75C80.25 34.1063 77.6307 40.4036 72.3922 45.6422C67.1536 50.8807 60.8563 53.5 53.5 53.5ZM0 107V88.275C0 84.4854 0.97526 81.0023 2.92578 77.8258C4.8763 74.6492 7.46771 72.225 10.7 70.5531C17.6104 67.0979 24.6323 64.5065 31.7656 62.7789C38.899 61.0513 46.1437 60.1875 53.5 60.1875C60.8563 60.1875 68.101 61.0513 75.2344 62.7789C82.3677 64.5065 89.3896 67.0979 96.3 70.5531C99.5323 72.225 102.124 74.6492 104.074 77.8258C106.025 81.0023 107 84.4854 107 88.275V107H0Z" fill="#5C3F40"/>
</svg>
