<svg width="63" height="79" viewBox="0 0 63 79" fill="none" xmlns="http://www.w3.org/2000/svg">
<path d="M15.75 63.2H47.25V55.3H15.75V63.2ZM15.75 47.4H47.25V39.5H15.75V47.4ZM7.875 79C5.70937 79 3.85547 78.2265 2.31328 76.6794C0.771094 75.1323 0 73.2725 0 71.1V7.9C0 5.7275 0.771094 3.86771 2.31328 2.32062C3.85547 0.773542 5.70937 0 7.875 0H39.375L63 23.7V71.1C63 73.2725 62.2289 75.1323 60.6867 76.6794C59.1445 78.2265 57.2906 79 55.125 79H7.875ZM35.4375 27.65V7.9H7.875V71.1H55.125V27.65H35.4375ZM7.875 7.9V27.65V71.1V7.9Z" fill="#B80035"/>
</svg>
