<svg width="80" height="79" viewBox="0 0 80 79" fill="none" xmlns="http://www.w3.org/2000/svg">
<path d="M36 59.25H44V35.55H36V59.25ZM40 27.65C41.1333 27.65 42.0833 27.2715 42.85 26.5144C43.6167 25.7573 44 24.8192 44 23.7C44 22.5808 43.6167 21.6427 42.85 20.8856C42.0833 20.1285 41.1333 19.75 40 19.75C38.8667 19.75 37.9167 20.1285 37.15 20.8856C36.3833 21.6427 36 22.5808 36 23.7C36 24.8192 36.3833 25.7573 37.15 26.5144C37.9167 27.2715 38.8667 27.65 40 27.65ZM40 79C34.4667 79 29.2667 77.9631 24.4 75.8894C19.5333 73.8156 15.3 71.0013 11.7 67.4463C8.1 63.8913 5.25 59.7108 3.15 54.905C1.05 50.0992 0 44.9642 0 39.5C0 34.0358 1.05 28.9008 3.15 24.095C5.25 19.2892 8.1 15.1087 11.7 11.5537C15.3 7.99875 19.5333 5.18438 24.4 3.11063C29.2667 1.03688 34.4667 0 40 0C45.5333 0 50.7333 1.03688 55.6 3.11063C60.4667 5.18438 64.7 7.99875 68.3 11.5537C71.9 15.1087 74.75 19.2892 76.85 24.095C78.95 28.9008 80 34.0358 80 39.5C80 44.9642 78.95 50.0992 76.85 54.905C74.75 59.7108 71.9 63.8913 68.3 67.4463C64.7 71.0013 60.4667 73.8156 55.6 75.8894C50.7333 77.9631 45.5333 79 40 79ZM40 71.1C48.9333 71.1 56.5 68.0388 62.7 61.9163C68.9 55.7938 72 48.3217 72 39.5C72 30.6783 68.9 23.2062 62.7 17.0837C56.5 10.9612 48.9333 7.9 40 7.9C31.0667 7.9 23.5 10.9612 17.3 17.0837C11.1 23.2062 8 30.6783 8 39.5C8 48.3217 11.1 55.7938 17.3 61.9163C23.5 68.0388 31.0667 71.1 40 71.1Z" fill="#B80035"/>
</svg>
