<svg width="64" height="80" viewBox="0 0 64 80" fill="none" xmlns="http://www.w3.org/2000/svg">
<path d="M32 40C34.2 40 36.0833 39.2167 37.65 37.65C39.2167 36.0833 40 34.2 40 32C40 29.8 39.2167 27.9167 37.65 26.35C36.0833 24.7833 34.2 24 32 24C29.8 24 27.9167 24.7833 26.35 26.35C24.7833 27.9167 24 29.8 24 32C24 34.2 24.7833 36.0833 26.35 37.65C27.9167 39.2167 29.8 40 32 40ZM32 69.4C40.1333 61.9333 46.1667 55.15 50.1 49.05C54.0333 42.95 56 37.5333 56 32.8C56 25.5333 53.6833 19.5833 49.05 14.95C44.4167 10.3167 38.7333 8 32 8C25.2667 8 19.5833 10.3167 14.95 14.95C10.3167 19.5833 8 25.5333 8 32.8C8 37.5333 9.96667 42.95 13.9 49.05C17.8333 55.15 23.8667 61.9333 32 69.4ZM32 80C21.2667 70.8667 13.25 62.3833 7.95 54.55C2.65 46.7167 0 39.4667 0 32.8C0 22.8 3.21667 14.8333 9.65 8.9C16.0833 2.96667 23.5333 0 32 0C40.4667 0 47.9167 2.96667 54.35 8.9C60.7833 14.8333 64 22.8 64 32.8C64 39.4667 61.35 46.7167 56.05 54.55C50.75 62.3833 42.7333 70.8667 32 80Z" fill="#B80035"/>
</svg>
