<svg width="86" height="63" viewBox="0 0 86 63" fill="none" xmlns="http://www.w3.org/2000/svg">
<path d="M50.8182 35.4375C47.5606 35.4375 44.7917 34.2891 42.5114 31.9922C40.2311 29.6953 39.0909 26.9062 39.0909 23.625C39.0909 20.3438 40.2311 17.5547 42.5114 15.2578C44.7917 12.9609 47.5606 11.8125 50.8182 11.8125C54.0758 11.8125 56.8447 12.9609 59.125 15.2578C61.4053 17.5547 62.5455 20.3438 62.5455 23.625C62.5455 26.9062 61.4053 29.6953 59.125 31.9922C56.8447 34.2891 54.0758 35.4375 50.8182 35.4375ZM23.4545 47.25C21.3045 47.25 19.464 46.4789 17.933 44.9367C16.4019 43.3945 15.6364 41.5406 15.6364 39.375V7.875C15.6364 5.70937 16.4019 3.85547 17.933 2.31328C19.464 0.771094 21.3045 0 23.4545 0H78.1818C80.3318 0 82.1724 0.771094 83.7034 2.31328C85.2345 3.85547 86 5.70937 86 7.875V39.375C86 41.5406 85.2345 43.3945 83.7034 44.9367C82.1724 46.4789 80.3318 47.25 78.1818 47.25H23.4545ZM31.2727 39.375H70.3636C70.3636 37.2094 71.1292 35.3555 72.6602 33.8133C74.1913 32.2711 76.0318 31.5 78.1818 31.5V15.75C76.0318 15.75 74.1913 14.9789 72.6602 13.4367C71.1292 11.8945 70.3636 10.0406 70.3636 7.875H31.2727C31.2727 10.0406 30.5072 11.8945 28.9761 13.4367C27.4451 14.9789 25.6045 15.75 23.4545 15.75V31.5C25.6045 31.5 27.4451 32.2711 28.9761 33.8133C30.5072 35.3555 31.2727 37.2094 31.2727 39.375ZM74.2727 63H7.81818C5.66818 63 3.82765 62.2289 2.29659 60.6867C0.76553 59.1445 0 57.2906 0 55.125V11.8125H7.81818V55.125H74.2727V63Z" fill="#B80035"/>
</svg>
