<svg width="115" height="115" viewBox="0 0 115 115" fill="none" xmlns="http://www.w3.org/2000/svg">
<path d="M51.75 86.25H63.25V63.25H86.25V51.75H63.25V28.75H51.75V51.75H28.75V63.25H51.75V86.25ZM57.5 115C49.5458 115 42.0708 113.491 35.075 110.472C28.0792 107.453 21.9937 103.356 16.8188 98.1813C11.6438 93.0062 7.54688 86.9208 4.52813 79.925C1.50938 72.9292 0 65.4542 0 57.5C0 49.5458 1.50938 42.0708 4.52813 35.075C7.54688 28.0792 11.6438 21.9937 16.8188 16.8188C21.9937 11.6438 28.0792 7.54688 35.075 4.52813C42.0708 1.50938 49.5458 0 57.5 0C65.4542 0 72.9292 1.50938 79.925 4.52813C86.9208 7.54688 93.0062 11.6438 98.1813 16.8188C103.356 21.9937 107.453 28.0792 110.472 35.075C113.491 42.0708 115 49.5458 115 57.5C115 65.4542 113.491 72.9292 110.472 79.925C107.453 86.9208 103.356 93.0062 98.1813 98.1813C93.0062 103.356 86.9208 107.453 79.925 110.472C72.9292 113.491 65.4542 115 57.5 115ZM57.5 103.5C70.3417 103.5 81.2188 99.0437 90.1312 90.1312C99.0437 81.2188 103.5 70.3417 103.5 57.5C103.5 44.6583 99.0437 33.7812 90.1312 24.8687C81.2188 15.9563 70.3417 11.5 57.5 11.5C44.6583 11.5 33.7812 15.9563 24.8687 24.8687C15.9563 33.7812 11.5 44.6583 11.5 57.5C11.5 70.3417 15.9563 81.2188 24.8687 90.1312C33.7812 99.0437 44.6583 103.5 57.5 103.5Z" fill="white"/>
</svg>
