<svg width="77" height="86" viewBox="0 0 77 86" fill="none" xmlns="http://www.w3.org/2000/svg">
<path d="M8.55556 86C6.20278 86 4.18866 85.1579 2.51319 83.4737C0.837732 81.7896 0 79.765 0 77.4V17.2C0 14.835 0.837732 12.8104 2.51319 11.1262C4.18866 9.44208 6.20278 8.6 8.55556 8.6H12.8333V0H21.3889V8.6H55.6111V0H64.1667V8.6H68.4444C70.7972 8.6 72.8113 9.44208 74.4868 11.1262C76.1623 12.8104 77 14.835 77 17.2V77.4C77 79.765 76.1623 81.7896 74.4868 83.4737C72.8113 85.1579 70.7972 86 68.4444 86H8.55556ZM8.55556 77.4H68.4444V34.4H8.55556V77.4ZM8.55556 25.8H68.4444V17.2H8.55556V25.8Z" fill="#111C2D"/>
</svg>
