<svg width="103" height="103" viewBox="0 0 103 103" fill="none" xmlns="http://www.w3.org/2000/svg">
<path d="M11.4444 91.5556H19.5986L75.5333 35.6208L67.3792 27.4667L11.4444 83.4014V91.5556ZM0 103V78.6806L75.5333 3.29028C76.6778 2.2412 77.9414 1.43056 79.3243 0.858333C80.7072 0.286111 82.1616 0 83.6875 0C85.2134 0 86.6917 0.286111 88.1222 0.858333C89.5528 1.43056 90.7926 2.28889 91.8417 3.43333L99.7097 11.4444C100.854 12.4935 101.689 13.7333 102.213 15.1639C102.738 16.5944 103 18.025 103 19.4556C103 20.9815 102.738 22.4359 102.213 23.8188C101.689 25.2016 100.854 26.4653 99.7097 27.6097L24.3194 103H0ZM71.3847 31.6153L67.3792 27.4667L75.5333 35.6208L71.3847 31.6153Z" fill="#5C3F40"/>
</svg>
