<svg width="69" height="85" viewBox="0 0 69 85" fill="none" xmlns="http://www.w3.org/2000/svg">
<path d="M34.5 42.5C36.8719 42.5 38.9023 41.6677 40.5914 40.0031C42.2805 38.3385 43.125 36.3375 43.125 34C43.125 31.6625 42.2805 29.6615 40.5914 27.9969C38.9023 26.3323 36.8719 25.5 34.5 25.5C32.1281 25.5 30.0977 26.3323 28.4086 27.9969C26.7195 29.6615 25.875 31.6625 25.875 34C25.875 36.3375 26.7195 38.3385 28.4086 40.0031C30.0977 41.6677 32.1281 42.5 34.5 42.5ZM34.5 73.7375C43.2687 65.8042 49.7734 58.5969 54.0141 52.1156C58.2547 45.6344 60.375 39.8792 60.375 34.85C60.375 27.1292 57.8773 20.8073 52.882 15.8844C47.8867 10.9615 41.7594 8.5 34.5 8.5C27.2406 8.5 21.1133 10.9615 16.118 15.8844C11.1227 20.8073 8.625 27.1292 8.625 34.85C8.625 39.8792 10.7453 45.6344 14.9859 52.1156C19.2266 58.5969 25.7313 65.8042 34.5 73.7375ZM34.5 85C22.9281 75.2958 14.2852 66.2823 8.57109 57.9594C2.85703 49.6365 0 41.9333 0 34.85C0 24.225 3.46797 15.7604 10.4039 9.45625C17.3398 3.15208 25.3719 0 34.5 0C43.6281 0 51.6602 3.15208 58.5961 9.45625C65.532 15.7604 69 24.225 69 34.85C69 41.9333 66.143 49.6365 60.4289 57.9594C54.7148 66.2823 46.0719 75.2958 34.5 85Z" fill="#5C3F40"/>
</svg>
