<svg width="85" height="68" viewBox="0 0 85 68" fill="none" xmlns="http://www.w3.org/2000/svg">
<path d="M8.5 68C6.1625 68 4.16146 67.1677 2.49688 65.5031C0.832292 63.8385 0 61.8375 0 59.5V8.5C0 6.1625 0.832292 4.16146 2.49688 2.49688C4.16146 0.832292 6.1625 0 8.5 0H59.5C61.8375 0 63.8385 0.832292 65.5031 2.49688C67.1677 4.16146 68 6.1625 68 8.5V27.625L85 10.625V57.375L68 40.375V59.5C68 61.8375 67.1677 63.8385 65.5031 65.5031C63.8385 67.1677 61.8375 68 59.5 68H8.5ZM8.5 59.5H59.5V8.5H8.5V59.5Z" fill="#111C2D"/>
</svg>
